<svg xmlns="http://www.w3.org/2000/svg" xmlns:xlink="http://www.w3.org/1999/xlink" width="800" height="800" viewBox="0 0 800 800"><defs><clipPath id="b"><rect width="800" height="800"/></clipPath></defs><g id="a" clip-path="url(#b)"><rect width="800" height="800" fill="#f3f3f3"/><g transform="translate(307.163 200.114)"><path d="M186.779,247.13H-.9A11.916,11.916,0,0,0,11.02,259.046H174.863a11.916,11.916,0,0,0,11.916-11.916h0c0-1.2-.017.375,0,.029-.019-.1-.384-.148,0-.029.248.071-.707-.356,0,0-.019.613,0-.377,0,0,0,.2-.325.154,0,.029C186.918,247.18,187.781,247.13,186.779,247.13Zm0,0-17.451-30.3L151.385,190.3a8.935,8.935,0,0,0-12.329.3l-23.765,23.765L68.415,158.385a8.937,8.937,0,0,0-13.625-.092L20.072,214.359-.9,247.128ZM124.22,156.269A16.383,16.383,0,1,1,140.6,172.653a16.383,16.383,0,0,1-16.383-16.383Z" transform="translate(0 0)" fill="#dedede"/></g></g></svg>